<?xml version="1.0" standalone="no"?>
<!DOCTYPE svg PUBLIC "-//W3C//DTD SVG 20010904//EN"
 "http://www.w3.org/TR/2001/REC-SVG-20010904/DTD/svg10.dtd">
<svg version="1.0" xmlns="http://www.w3.org/2000/svg"
 width="512.000000pt" height="512.000000pt" viewBox="0 0 512.000000 512.000000"
 preserveAspectRatio="xMidYMid meet">
<metadata>
Created by potrace 1.14, written by Peter Selinger 2001-2017
</metadata>
<g transform="translate(0.000000,512.000000) scale(0.100000,-0.100000)"
fill="#000000" stroke="none">
<path d="M1253 5019 c-27 -10 -34 -31 -20 -57 83 -148 116 -233 124 -319 3
-29 3 -53 0 -53 -2 0 -24 11 -48 24 -52 28 -185 71 -249 80 -118 16 -150 19
-217 20 -78 1 -78 1 -87 -29 -8 -28 -3 -33 99 -100 50 -33 103 -71 120 -85 62
-52 158 -146 176 -172 l19 -26 -92 0 c-90 1 -176 -6 -228 -17 -14 -3 -48 -10
-77 -16 -60 -11 -241 -69 -305 -97 -23 -10 -62 -27 -85 -37 -52 -22 -65 -51
-33 -77 13 -10 30 -16 39 -14 67 21 307 26 430 10 79 -10 185 -36 199 -49 2
-2 -36 -15 -85 -29 -208 -62 -337 -117 -526 -224 -127 -71 -145 -89 -126 -123
11 -21 15 -21 113 -14 191 15 314 9 467 -25 51 -11 94 -22 96 -24 2 -2 -26
-20 -63 -41 -86 -46 -166 -109 -224 -172 -117 -128 -129 -150 -102 -182 16
-19 19 -19 72 -5 175 47 385 72 490 56 29 -4 29 -5 -63 -96 -102 -100 -158
-171 -212 -269 -41 -75 -45 -114 -12 -126 12 -5 25 -7 29 -5 13 8 114 24 187
31 79 6 82 6 171 4 l55 -1 -30 -25 c-91 -78 -158 -161 -189 -236 -25 -61 -19
-63 177 -63 97 -1 178 -4 182 -7 3 -4 -13 -26 -35 -49 -61 -64 -118 -188 -105
-229 9 -29 27 -32 112 -15 107 21 277 28 266 11 -4 -6 -20 -30 -35 -53 -46
-69 -69 -131 -58 -159 12 -31 37 -32 90 -5 41 21 149 50 187 50 l23 0 -22 -42
c-26 -50 -30 -150 -7 -173 23 -22 64 -28 249 -31 96 -2 177 -4 179 -4 13 -1
-185 -121 -284 -172 -74 -38 -192 -83 -241 -91 -16 -3 -54 -10 -84 -17 -30 -6
-71 -13 -90 -16 -19 -3 -60 -9 -90 -14 -30 -6 -73 -12 -95 -15 -22 -2 -56 -7
-75 -10 -19 -3 -48 -7 -65 -9 -16 -3 -50 -7 -75 -11 -25 -3 -56 -7 -70 -9 -32
-4 -118 -17 -150 -22 -14 -2 -41 -7 -60 -10 -19 -3 -65 -14 -102 -25 -56 -16
-73 -27 -102 -63 -106 -129 -233 -516 -241 -736 -4 -91 11 -125 63 -147 98
-41 239 17 659 268 194 116 283 159 428 204 102 32 388 104 393 100 3 -3 -219
-274 -256 -313 -7 -8 -24 -29 -37 -47 l-26 -33 -36 19 c-43 22 -85 24 -149 8
-34 -9 -46 -17 -50 -35 -4 -14 -1 -31 7 -40 12 -15 19 -15 109 1 8 1 25 -1 37
-6 20 -7 22 -14 18 -50 -14 -109 -72 -144 -235 -143 -58 0 -116 3 -130 6 -35
8 -60 -8 -60 -37 0 -30 25 -44 88 -52 121 -15 220 -5 290 28 l57 27 -35 -29
c-19 -17 -53 -40 -75 -52 -46 -26 -53 -45 -27 -77 l19 -23 51 28 c141 77 210
191 178 293 -6 17 -3 22 10 22 9 0 40 7 68 15 28 8 89 26 136 39 323 93 516
214 990 619 304 260 470 384 631 471 l86 46 6 -30 c10 -45 39 -39 189 39 260
134 392 222 489 323 59 61 59 61 164 61 59 0 143 -15 240 -43 115 -33 121 -27
101 113 -23 163 -123 279 -289 336 -31 11 -78 36 -104 56 -27 20 -94 60 -151
87 -94 46 -111 51 -179 53 -81 2 -187 -14 -286 -45 -34 -11 -62 -18 -64 -16
-2 1 32 30 75 64 81 64 199 179 253 247 84 107 125 247 107 364 -22 140 -117
206 -224 155 -36 -17 -109 -86 -157 -147 -23 -29 -147 -128 -207 -165 -127
-77 -467 -218 -485 -200 -3 2 -7 32 -10 66 -4 34 -8 70 -10 81 -2 11 -6 48
-10 83 -3 35 -8 74 -10 88 -2 14 -7 45 -10 70 -6 42 -19 123 -30 180 -36 185
-88 337 -173 505 -132 261 -367 477 -771 708 -62 35 -362 183 -441 217 -41 18
-88 38 -105 46 -119 53 -284 110 -302 103z"/>
</g>
</svg>
